Coordinates
nRows=146
nColumns=2
inDegrees=yes
endheader
time	ankle_angle_r	
3.5	  9.195964	
3.5625	  9.134747	
3.625	  9.185791	
3.6875	  9.119124	
3.75	  9.145827	
3.8125	  9.170532	
3.875	  9.179615	
3.9375	  9.176890	
4	  9.118217	
4.0625	  9.124756	
4.125	  9.148371	
4.1875	  9.131841	
4.25	  9.223575	
4.3125	  9.125119	
4.375	  9.147644	
4.4375	  9.185791	
4.5	  9.116036	
4.5625	  9.148189	
4.625	  9.094238	
4.6875	  9.148552	
4.75	  9.229387	
4.8125	  9.161632	
4.875	  9.173439	
4.9375	  9.170532	
5	  9.134202	
5.0625	  9.151278	
5.125	  9.140015	
5.1875	  9.140015	
5.25	  9.185791	
5.3125	  9.160178	
5.375	  9.176345	
5.4375	  9.155273	
5.5	  9.144374	
5.5625	  9.174710	
5.625	  9.170532	
5.6875	  9.204865	
5.75	  9.189425	
5.8125	  9.185791	
5.875	  9.218489	
5.9375	  9.140015	
6	  9.170532	
6.0625	  9.183066	
6.125	  9.152730	
6.1875	  9.218670	
6.25	  9.172712	
6.3125	  9.183793	
6.375	  9.216309	
6.4375	  9.155273	
6.5	  9.199596	
6.5625	  9.140015	
6.625	  9.156363	
6.6875	  9.201050	
6.75	  9.171259	
6.8125	  9.201050	
6.875	  9.156000	
6.9375	  9.125300	
7	  9.155273	
7.0625	  9.170713	
7.125	  9.170532	
7.1875	  9.171622	
7.25	  9.140015	
7.3125	  9.168715	
7.375	  9.140015	
7.4375	  9.140015	
7.5	  9.170532	
7.5625	  9.107862	
7.625	  9.199233	
7.6875	  9.159269	
7.75	  9.153093	
7.8125	  9.148189	
7.875	  9.096782	
7.9375	  9.157998	
8	  9.078979	
8.0625	  9.124756	
8.125	  9.197780	
8.1875	  9.136563	
8.25	  9.201050	
8.3125	  9.105682	
8.375	  9.148007	
8.4375	  9.135837	
8.5	  9.100778	
8.5625	  9.165991	
8.625	  9.124756	
8.6875	  9.129661	
8.75	  9.201050	
8.8125	  9.068989	
8.875	  9.140015	
8.9375	  9.098234	
9	  9.124756	
9.0625	  9.155273	
9.125	  9.124756	
9.1875	  9.142558	
9.25	  9.161813	
9.3125	  9.102776	
9.375	  9.155273	
9.4375	  9.094238	
9.5	  9.200323	
9.5625	  9.155273	
9.625	  9.140015	
9.6875	  9.132204	
9.75	  9.093512	
9.8125	  9.132930	
9.875	  9.155273	
9.9375	  9.124756	
10	  9.170532	
10.0625	  9.033203	
10.125	  9.024120	
10.1875	  9.054457	
10.25	  9.017944	
10.3125	  9.073348	
10.375	  9.012495	
10.4375	  9.114765	
10.5	  9.160359	
10.5625	  9.135110	
10.625	  9.181068	
10.6875	  9.181250	
10.75	  9.089879	
10.8125	  9.170532	
10.875	  9.124756	
10.9375	  9.201050	
11	  9.216309	
11.0625	  9.185791	
11.125	  9.182521	
11.1875	  9.127844	
11.25	  9.148734	
11.3125	  9.165083	
11.375	  9.081523	
11.4375	  9.198689	
11.5	  9.153093	
11.5625	  9.183793	
11.625	  9.172349	
11.6875	  9.095873	
11.75	  9.169079	
11.8125	  9.154002	
11.875	  9.169442	
11.9375	  9.170532	
12	  9.170532	
12.0625	  9.201594	
12.125	  9.111314	
12.1875	  9.155273	
12.25	  9.140015	
12.3125	  9.155273	
12.375	  9.215582	
12.4375	  9.155818	
12.5	  9.155273	
12.5625	  9.229751	
